<?xml version="1.0" encoding="utf-8"?>
<!-- Generator: Adobe Illustrator 22.0.1, SVG Export Plug-In . SVG Version: 6.00 Build 0)  -->
<svg version="1.1" id="Layer_1" xmlns="http://www.w3.org/2000/svg" xmlns:xlink="http://www.w3.org/1999/xlink" x="0px" y="0px"
	 viewBox="0 0 820 165.3" style="enable-background:new 0 0 820 165.3;" xml:space="preserve"
   fill="#fafafa"

	 >
<g>
	<path d="M60.5,0.9H0.1v162.6h60.4c23.7,0,43.5-7.9,59.5-23.6c16-15.7,24-35,24-57.7c0-22.8-8-42-24-57.7C104,8.7,84.2,0.9,60.5,0.9
		z M95,117.7c-9.5,9.7-21,14.5-34.5,14.5H35V32.3h25.5c13.9,0,25.5,4.8,34.8,14.5c9.3,9.7,13.9,21.5,13.9,35.4
		C109.3,96.2,104.5,108,95,117.7z"/>
	<path d="M236.1,47.4c-4.2,0-8.2,0.6-12.1,1.8c-3.9,1.2-7,2.5-9.5,4c-2.4,1.5-4.7,3.1-6.7,5c-2.1,1.9-3.4,3.1-4,3.8
		c-0.6,0.7-1.1,1.2-1.4,1.7V0.9H171v162.6h31.4v-13.9l3.4,4.2c2.3,2.6,6.3,5.3,12,8c5.7,2.7,11.8,4,18.3,4
		c14.7,0,27.4-5.7,38.3-17.2c10.8-11.5,16.3-25.5,16.3-42c0-16.6-5.4-30.6-16.2-42C263.6,53.1,250.8,47.4,236.1,47.4z M250,129.1
		c-5.4,5.9-12,8.8-19.7,8.8c-7.7,0-14.3-2.9-19.7-8.8c-5.4-5.9-8.1-13.4-8.1-22.6c0-9.1,2.7-16.6,8.1-22.5c5.4-5.9,12-8.8,19.7-8.8
		c7.7,0,14.3,2.9,19.7,8.8c5.4,5.9,8.1,13.4,8.1,22.5C258.1,115.7,255.4,123.2,250,129.1z"/>
	<path d="M360.1,52.7c-5.6,2.8-9.3,5-10.9,6.7c-1.7,1.7-2.9,3.1-3.9,4.1V49.6H314v113.8h31.3v-54.5c0-9.8,2.4-17.2,7.2-22.5
		c4.8-5.2,11.3-7.8,19.6-7.8c4.6,0.1,8.1,0.5,10.4,1.2V48.5h-4.6C371.6,48.5,365.7,49.9,360.1,52.7z"/>
	<path d="M481.4,63.6l-3.5-4.2c-2.3-2.6-6.3-5.2-12-7.9c-5.6-2.7-11.7-4.1-18.2-4.1c-14.7,0-27.5,5.7-38.4,17.2
		C398.4,76,393,90,393,106.6c0,16.6,5.4,30.6,16.3,42c10.8,11.5,23.6,17.2,38.4,17.2c4.2,0,8.2-0.6,12-1.7c3.9-1.1,7-2.4,9.4-3.9
		c2.4-1.5,4.7-3.1,6.7-5c2.1-1.9,3.4-3.1,4.1-3.9c0.6-0.7,1.1-1.3,1.4-1.8v13.9h31.3V50h-31.3V63.6z M473.2,129.1
		c-5.4,5.9-12,8.8-19.7,8.8c-7.7,0-14.3-2.9-19.7-8.8c-5.4-5.9-8.2-13.4-8.2-22.6c0-9.1,2.7-16.6,8.2-22.5c5.4-5.9,12-8.8,19.7-8.8
		c7.7,0,14.3,2.9,19.7,8.8c5.4,5.9,8.2,13.4,8.2,22.5C481.4,115.7,478.6,123.2,473.2,129.1z"/>
	<rect x="545.3" y="49.6" width="31.4" height="113.8"/>
	<path d="M560.4-0.2c-5.2,0-9.4,1.6-12.6,4.8c-3.2,3.2-4.8,7.4-4.8,12.6c0,5.3,1.6,9.5,4.7,12.6c3.1,3.2,7.4,4.8,12.6,4.8
		c5.7,0,10.3-1.6,13.6-4.8c3.3-3.2,5-7.4,5-12.6c0-5.3-1.7-9.5-5-12.6S566.1-0.2,560.4-0.2z"/>
	<path d="M672.1,47.4c-6.2,0-12.1,1.5-17.7,4.5c-5.6,3-9.3,5.4-10.9,7.2c-1.7,1.8-2.9,3.3-3.9,4.5l0-13.9h-31.3v113.8h31.3v-59.2
		c0-8.5,2.1-15.1,6.3-19.8c4.2-4.6,9.8-7,17-7c6.5,0,11.8,2.1,15.9,6.4c4.1,4.3,6.2,9.9,6.2,16.8v62.7h31.3V97.3
		c0-15.3-4.1-27.4-12.3-36.4C695.7,51.9,685.1,47.4,672.1,47.4z"/>
	<path d="M808.3,64.9c-1-1.4-1.3-3-0.9-4.8l12.4-58.2h-10.7L806.6,14l-0.9-1.4c-0.6-0.9-1.7-2-3-3.4s-3-2.7-4.8-4.1
		c-1.8-1.3-4.1-2.5-7-3.4c-2.9-0.9-5.9-1.4-9-1.4c-10.6,0-20.4,4.4-29.3,13.3c-8.9,8.9-13.4,19.4-13.4,31.7c0,8.6,3,16,8.9,22.3
		c5.9,6.3,12.9,9.4,20.8,9.4c3.2,0,6.3-0.4,9.3-1.3c3-0.9,5.5-1.9,7.4-3s3.8-2.3,5.6-3.8c1.8-1.4,3-2.4,3.5-3c0.5-0.5,0.9-1,1.2-1.3
		l-0.2,1.5c0,2.5,1,5,2.9,7.3c1.9,2.3,5.5,3.5,10.7,3.5c2,0,3.8-0.2,5.4-0.7l2.1-9.9l-4.3,0.7C810.7,67,809.3,66.3,808.3,64.9z
		 M792,55.9c-6.6,7.4-13.9,11.1-21.9,11.1c-5.4,0-10.1-2.2-14.1-6.5s-6-9.7-6-16c0-9.1,3.3-17,10-23.9c6.7-6.8,13.6-10.2,20.7-10.2
		c5.8,0,10.8,2,15,6.1c4.2,4.1,6.3,9.2,6.3,15.4C802,40.5,798.7,48.5,792,55.9z"/>
</g>
</svg>
