<?xml version="1.0" encoding="UTF-8" standalone="no"?>
<!-- Created with Inkscape (http://www.inkscape.org/) -->

<svg
   xmlns:dc="http://purl.org/dc/elements/1.1/"
   xmlns:cc="http://creativecommons.org/ns#"
   xmlns:rdf="http://www.w3.org/1999/02/22-rdf-syntax-ns#"
   xmlns:svg="http://www.w3.org/2000/svg"
   xmlns="http://www.w3.org/2000/svg"
   xmlns:sodipodi="http://sodipodi.sourceforge.net/DTD/sodipodi-0.dtd"
   xmlns:inkscape="http://www.inkscape.org/namespaces/inkscape"
   width="72mm"
   height="72mm"
   viewBox="0 0 72 72.000001"
   version="1.1"
   id="svg8"
   inkscape:version="0.92.1 r15371"
   sodipodi:docname="Logo_white.svg"
   inkscape:export-filename="C:\Users\Sun\Dropbox\Blockchain\Projects\DBrain\Assets\Logo_white.png"
   inkscape:export-xdpi="90.309998"
   inkscape:export-ydpi="90.309998">
  <defs
     id="defs2" />
  <sodipodi:namedview
     id="base"
     pagecolor="#ffffff"
     bordercolor="#666666"
     borderopacity="1.0"
     inkscape:pageopacity="0.0"
     inkscape:pageshadow="2"
     inkscape:zoom="1.4"
     inkscape:cx="72.606948"
     inkscape:cy="123.89161"
     inkscape:document-units="mm"
     inkscape:current-layer="layer1"
     showgrid="false"
     inkscape:window-width="1920"
     inkscape:window-height="1017"
     inkscape:window-x="1432"
     inkscape:window-y="-8"
     inkscape:window-maximized="1"
     fit-margin-top="1"
     fit-margin-bottom="1"
     fit-margin-left="1"
     fit-margin-right="1" />
  <metadata
     id="metadata5">
    <rdf:RDF>
      <cc:Work
         rdf:about="">
        <dc:format>image/svg+xml</dc:format>
        <dc:type
           rdf:resource="http://purl.org/dc/dcmitype/StillImage" />
        <dc:title></dc:title>
      </cc:Work>
    </rdf:RDF>
  </metadata>
  <g
     inkscape:label="Layer 1"
     inkscape:groupmode="layer"
     id="layer1"
     transform="translate(-53.193505,-21.538806)">
    <text
       xml:space="preserve"
       style="font-style:normal;font-variant:normal;font-weight:normal;font-stretch:normal;font-size:10.58333302px;line-height:1.25;font-family:'Times New Roman';-inkscape-font-specification:'Times New Roman, ';letter-spacing:0px;word-spacing:0px;fill:#000000;fill-opacity:1;stroke:none;stroke-width:0.26458332"
       x="62.006531"
       y="87.460686"
       id="text60"><tspan
         sodipodi:role="line"
         id="tspan58"
         x="62.006531"
         y="96.854675"
         style="stroke-width:0.26458332" /></text>
    <g
       aria-label="Ä B"
       style="font-style:normal;font-variant:normal;font-weight:normal;font-stretch:normal;font-size:88.19444275px;line-height:1.25;font-family:'Times New Roman';-inkscape-font-specification:'Times New Roman, ';letter-spacing:0px;word-spacing:0px;fill:#000000;fill-opacity:1;stroke:none;stroke-width:0.26458332"
       id="text64"
       transform="translate(-2.9399648,-43.297663)" />
    <flowRoot
       xml:space="preserve"
       id="flowRoot66"
       style="font-style:normal;font-variant:normal;font-weight:normal;font-stretch:normal;font-size:40px;line-height:1.25;font-family:'Times New Roman';-inkscape-font-specification:'Times New Roman, ';letter-spacing:0px;word-spacing:0px;fill:#000000;fill-opacity:1;stroke:none"
       transform="scale(0.26458333)"><flowRegion
         id="flowRegion68"><rect
           id="rect70"
           width="36.36549"
           height="60.609154"
           x="413.1524"
           y="264.90018" /></flowRegion><flowPara
         id="flowPara72" /></flowRoot>    <g
       aria-label="B"
       style="font-style:normal;font-variant:normal;font-weight:normal;font-stretch:normal;font-size:10.58333302px;line-height:1.25;font-family:'Times New Roman';-inkscape-font-specification:'Times New Roman, ';letter-spacing:0px;word-spacing:0px;fill:#ffffff;fill-opacity:1;stroke:none;stroke-width:0.26458332"
       id="text81"
       transform="translate(-79.179965,0.66280139)"
       inkscape:export-xdpi="96"
       inkscape:export-ydpi="96">
      <path
         id="path83"
         style="font-size:105.83333588px;fill:#ffffff;fill-opacity:1;stroke-width:0.26458332"
         d="m 180.51616,56.110544 c 4.85758,1.033529 8.49215,2.687175 10.90372,4.960938 3.34175,3.169487 5.01262,7.04522 5.01262,11.627197 0,3.479547 -1.43652,7.155376 -3.64139,10.359315 -3.62227,2.791512 -1.99017,2.211379 -8.32092,5.261995 -3.82405,1.44694 -10.12075,3.550647 -18.01002,3.550647 h -33.07292 v -1.912028 h 2.6355 c 2.92833,0 5.02983,-0.930176 6.30452,-2.790527 0.79237,-1.205784 1.18856,-3.77238 1.18856,-7.699789 V 34.199736 c 0,-4.34082 -0.49954,-7.079671 -1.49862,-8.216553 -1.34359,-1.515842 -3.34174,-2.273763 -5.99446,-2.273763 h -2.6355 v -1.912028 h 30.28239 c 5.64995,0 10.18025,0.413412 13.5909,1.240235 5.16764,1.240234 9.11227,3.445095 11.8339,6.614583 2.72163,3.135037 4.08244,6.752387 4.08244,10.852051 0,3.513997 -1.06798,6.66626 -3.20394,9.456787 -2.13596,2.756077 -5.28822,4.805909 -9.45678,6.149496 z M 153.4377,53.320017 c 0,0 -0.003,-0.181423 0.026,0.753182 1.54507,0.01148 3.34821,0.0461 5.31138,0 5.02984,-0.118117 13.23162,-0.563699 15.74654,-1.631679 2.54937,-1.102431 4.49585,-2.773302 5.83944,-5.012614 1.34359,-2.239312 2.01538,-4.68533 2.01538,-7.338053 0,-4.099664 -1.67087,-7.596436 -5.01262,-10.490316 -3.34174,-2.893881 -8.21655,-4.340821 -14.62443,-4.340821 -3.44509,0 -6.54568,0.378961 -9.30176,1.136882 z m 0,33.486329 c 3.99631,0.930175 7.94095,1.395263 11.83391,1.395263 6.23562,0 10.98985,-1.395264 14.26269,-4.185791 3.27284,-2.824978 4.90926,-6.304524 4.90926,-10.438639 0,-2.721626 -0.74069,-5.339899 -2.22208,-7.854818 -1.48139,-2.51492 -3.89296,-4.49585 -7.2347,-5.94279 -3.34175,-1.44694 -7.47586,-1.881372 -12.40235,-1.881372 -2.13596,0 -7.60774,-0.02506 -9.15266,0 0,0 0.009,-0.355349 0.006,0.176049 z m -20.06423,5.06966 v -1.91202 h 2.6355 c 2.96278,0 5.08151,-0.96463 6.3562,-2.89388 0.72347,-1.10243 1.0852,-3.63458 1.0852,-7.59644 v -21.57595 h -10.0769 v -3.824048 h 10.0769 V 34.205113 c 0,-4.375271 -0.48231,-7.114122 -1.44694,-8.216553 -1.34358,-1.515842 -3.34174,-2.273763 -5.99446,-2.273763 h -2.6355 v -1.912028 h 28.52539 c 10.85205,0 18.87913,1.240234 24.08122,3.720703 5.20209,2.446018 9.49124,6.390653 12.86743,11.833904 3.37619,5.4088 5.06429,11.747773 5.06429,19.01692 0,9.88743 -3.16949,18.27624 -9.50846,25.16643 -6.30453,6.89019 -16.2264,10.33528 -29.76563,10.33528 z m 20.05045,-5.16764 c 4.37528,0.96463 8.0443,1.44694 11.00708,1.44694 7.95818,0 14.57276,-2.80775 19.84375,-8.42326 5.271,-5.61551 7.9065,-13.22917 7.9065,-22.84098 0,-9.680717 -2.6355,-17.311604 -7.9065,-22.892659 -5.27099,-5.581055 -12.02338,-8.371582 -20.25716,-8.371582 -3.10058,0 -6.63181,0.499539 -10.59367,1.498617 v 25.889893 0 3.824051 0 z"
         inkscape:connector-curvature="0" />
    </g>
  </g>
</svg>
